<svg width="101" height="101" viewBox="0 0 101 101" fill="none" xmlns="http://www.w3.org/2000/svg">
<rect x="0.0214844" y="0.851562" width="100" height="100" fill="#039BE5"/>
<path d="M72.5672 44.9727C73.5104 38.6681 68.7101 35.2789 62.1464 33.018L64.2756 24.4777L59.0771 23.1821L57.0042 31.4974C55.6375 31.1568 54.2339 30.8355 52.8391 30.5172L54.9268 22.1471L49.7313 20.8516L47.6006 29.3889C46.4694 29.1313 45.3589 28.8766 44.281 28.6086L44.2869 28.582L37.1177 26.7919L35.7348 32.3443C35.7348 32.3443 39.5918 33.2282 39.5104 33.283C41.6159 33.8086 41.9964 35.2019 41.9327 36.3065L39.5074 46.0358C39.6525 46.0728 39.8406 46.1261 40.0479 46.209C39.8746 46.1661 39.6896 46.1187 39.4986 46.0728L36.099 59.7021C35.8414 60.3417 35.1884 61.3012 33.7167 60.9369C33.7685 61.0125 29.9381 59.9938 29.9381 59.9938L27.3573 65.9445L34.1223 67.6309C35.3809 67.9463 36.6143 68.2765 37.8284 68.5874L35.677 77.2255L40.8696 78.521L43.0003 69.9748C44.4187 70.3597 45.7957 70.7151 47.1431 71.0497L45.0199 79.556L50.2184 80.8516L52.3698 72.2298C61.2344 73.9074 67.9002 73.2307 70.706 65.213C72.967 58.7574 70.5935 55.0336 65.9295 52.6054C69.3261 51.8221 71.8846 49.5878 72.5672 44.9727V44.9727ZM60.6895 61.6284C59.083 68.084 48.2136 64.5941 44.6897 63.7191L47.5444 52.2752C51.0683 53.1547 62.3685 54.8959 60.6895 61.6284ZM62.2975 44.8794C60.8316 50.7516 51.7849 47.7681 48.8503 47.0367L51.4384 36.6574C54.3731 37.3888 63.824 38.754 62.2975 44.8794V44.8794Z" fill="white"/>
</svg>
