<svg width="101" height="101" viewBox="0 0 101 101" fill="none" xmlns="http://www.w3.org/2000/svg">
<rect x="0.0214844" y="0.851501" width="100" height="100" fill="#3C91D4"/>
<path fill-rule="evenodd" clip-rule="evenodd" d="M54.429 15.8516H41.954V28.3257H25.0714V38.0285H58.3381C60.6347 38.0285 62.4965 39.8902 62.4965 42.1868C62.4965 44.4834 60.6347 46.3452 58.3381 46.3452H25.0714V56.048H61.1104C68.7657 56.048 74.9715 49.8421 74.9715 42.1868C74.9715 34.5315 68.7657 28.3257 61.1104 28.3257H54.429V15.8516Z" fill="url(#paint0_linear)"/>
<path fill-rule="evenodd" clip-rule="evenodd" d="M61.1104 46.3464H25.0714V53.6235V55.8066V63.9154V66.0985V73.3756H61.1104C68.7657 73.3756 74.9715 67.3249 74.9715 59.861C74.9715 52.3971 68.7657 46.3464 61.1104 46.3464ZM37.5464 63.9154V55.8066H58.3381C60.6347 55.8066 62.4965 57.6218 62.4965 59.861C62.4965 62.1002 60.6347 63.9154 58.3381 63.9154H37.5464ZM54.429 73.3766H41.954V85.8516H54.429V73.3766Z" fill="white"/>
<defs>
<linearGradient id="paint0_linear" x1="48.1915" y1="35.9498" x2="48.1915" y2="56.048" gradientUnits="userSpaceOnUse">
<stop stop-color="white"/>
<stop offset="1" stop-color="white" stop-opacity="0.6"/>
</linearGradient>
</defs>
</svg>
